<?xml version="1.0" encoding="UTF-8"?>
<svg version="1.1" viewBox="0 0 1024 1024" width="1024" height="1024" xmlns="http://www.w3.org/2000/svg">
<path transform="translate(0)" d="m0 0h1024v1024h-1024z" fill="#F0DEBA"/>
<path transform="translate(489,406)" d="m0 0v3l-6 12-5 15-52 2-34 3-42 6-26 6-15 6-8 5-2 3 5 4 13 6 21 6 26 5 38 5 24 2 19 1 38 1h46l46-2 35-3 28-4 28-6 20-7 11-6 2-3-5-5-10-5-20-6-32-6-36-5-29-2-67-1 5-13 10-15 1-1h36l30 2 43 5 35 6 24 6 18 6 14 8 8 8 2 3 1 17v20h47l17 4 16 7 12 9 12 12 8 13 5 13 2 9v27l-4 18-7 16-9 14-7 9-11 12-12 11-17 12-18 10-19 8-15 5-22 4-8 1-9 16-12 16-11 13-16 16-11 9-17 12-19 11-24 11-20 6-21 4-21 2h-32l-29-3-23-5-21-7-18-8-20-12-14-10-11-9-10-9-14-14-13-17-8-13-9-17-9-23-7-23-6-28-2-24v-126l1-18 6-8 8-6 16-8 21-7 27-6 34-5 31-3 35-2z" fill="#3E1C12"/>
<path transform="translate(455,132)" d="m0 0h99l3 2v2h2v97l-4 5-2 1-37 1v25l6 10 6 7 11 9 7 5v-21l3-5 3-2h93l5 3 2 3v96l-4 5-3 1-89 1-7-2-3-3v-51l-5-2-13-10-10-8-10-10-6-9-6-13-3-12-1-17-38-1-5-4-1-96 2-4z" fill="#FCF4E1"/>
<path transform="translate(448,268)" d="m0 0h22l4 4v39l7 1 14 7 10 9 7 7 8 13 4 12 1 16-2 16-5 12 43 2v1l-45 1-10 15-6 16-3 15v12h-11l-6-4-4-6v-12l1-7-2 1h-6l1-2h8l2-10 6-14 7-10 6-10 3-11v-13l-3-12-5-9-4-5-10-7-6-2v35l-4 6-3 2h-95l-4-4-1-2v-95l3-5 3-1z" fill="#FBF3E0"/>
<path transform="translate(727,528)" d="m0 0h45l12 4 10 7 6 7 5 10 1 3v19l-4 13-7 13-8 10-14 14-16 11-17 9-16 6-9 2 4-19 4-23 2-17 1-18z" fill="#F0DEBB"/>
<path transform="translate(470,152)" d="m0 0h66l3 1v65l-30 1h-39l-1-1v-65z" fill="#F0DEBA"/>
<path transform="translate(390,289)" d="m0 0h64v66l-3 1h-63l-1-1v-65z" fill="#F0DEBA"/>
<path transform="translate(566,289)" d="m0 0h66v66h-66z" fill="#F0DEBA"/>
<path transform="translate(376,633)" d="m0 0h35l164 2v12l-199 8-1-2z" fill="#DBA964"/>
<path transform="translate(465,665)" d="m0 0 4 2 10 8v2l-7 6-1 2h-2l-2 4-45 45-1 2-4-2-11-11 39-39h2v-2l8-7z" fill="#DBA964"/>
<path transform="translate(426,552)" d="m0 0 7 6 7 7 8 7 31 31-4 4-8 6-4 2-10-10-8-7-32-32 5-5z" fill="#DBA863"/>
<path transform="translate(494,528)" d="m0 0h17v71h-19l1-66z" fill="#DAA761"/>
<path transform="translate(510,680)" d="m0 0h1v70h-19v-36l1-33h13z" fill="#DBA965"/>
<path transform="translate(537,663)" d="m0 0 7 6 10 10 8 7 9 9-5 6-8 7-4-2-15-15-7-8-7-7 2-4z" fill="#DCAA66"/>
<path transform="translate(556,574)" d="m0 0 4 2 8 9-2 4-20 20-1 2h-2l-2 4-5-2-10-7 2-4z" fill="#DCAA66"/>
<path transform="translate(723,622)" d="m0 0 1 2-6 29 4 1-7 2 4-19 3-14z" fill="#F6E8CD"/>
</svg>
